<mxfile host="Electron" modified="2024-01-31T00:06:39.855Z" agent="Mozilla/5.0 (Windows NT 10.0; Win64; x64) AppleWebKit/537.36 (KHTML, like Gecko) draw.io/22.1.18 Chrome/120.0.6099.199 Electron/28.1.2 Safari/537.36" etag="Tn9AD-l1Lbl6qjnVUILN" version="22.1.18" type="device">
  <diagram id="PfKHX-Onb7dpk7IM1dCg" name="Page-1">
    <mxGraphModel dx="2705" dy="980" grid="0" gridSize="10" guides="1" tooltips="1" connect="1" arrows="1" fold="1" page="0" pageScale="1" pageWidth="1654" pageHeight="2336" background="#ffffff" math="0" shadow="0">
      <root>
        <mxCell id="0" />
        <mxCell id="1" parent="0" />
        <mxCell id="rycE0rhOUFEmShjch33u-5" style="edgeStyle=orthogonalEdgeStyle;rounded=0;orthogonalLoop=1;jettySize=auto;html=1;exitX=1;exitY=0.25;exitDx=0;exitDy=0;fontFamily=Comic Sans MS;strokeWidth=3;" parent="1" source="rycE0rhOUFEmShjch33u-1" target="rycE0rhOUFEmShjch33u-3" edge="1">
          <mxGeometry relative="1" as="geometry" />
        </mxCell>
        <mxCell id="rycE0rhOUFEmShjch33u-6" value="&lt;span style=&quot;font-weight: 600 ; color: rgb(25 , 25 , 25)&quot;&gt;&lt;font style=&quot;font-size: 35px&quot;&gt;Analtics Report&lt;/font&gt;&lt;/span&gt;" style="edgeLabel;html=1;align=center;verticalAlign=middle;resizable=0;points=[];fontFamily=Comic Sans MS;" parent="rycE0rhOUFEmShjch33u-5" vertex="1" connectable="0">
          <mxGeometry x="-0.1099" relative="1" as="geometry">
            <mxPoint as="offset" />
          </mxGeometry>
        </mxCell>
        <mxCell id="rycE0rhOUFEmShjch33u-10" style="edgeStyle=orthogonalEdgeStyle;rounded=0;orthogonalLoop=1;jettySize=auto;html=1;exitX=0;exitY=0.5;exitDx=0;exitDy=0;fontFamily=Comic Sans MS;strokeWidth=4;" parent="1" source="rycE0rhOUFEmShjch33u-1" edge="1">
          <mxGeometry relative="1" as="geometry">
            <mxPoint x="-88" y="631" as="targetPoint" />
          </mxGeometry>
        </mxCell>
        <mxCell id="rycE0rhOUFEmShjch33u-15" value="&lt;span style=&quot;color: rgb(25 , 25 , 25)&quot;&gt;&lt;font style=&quot;font-size: 35px&quot;&gt;&lt;b&gt;User History&lt;/b&gt;&lt;/font&gt;&lt;/span&gt;" style="edgeLabel;html=1;align=center;verticalAlign=middle;resizable=0;points=[];fontFamily=Comic Sans MS;fontSize=25;fontStyle=0;" parent="rycE0rhOUFEmShjch33u-10" vertex="1" connectable="0">
          <mxGeometry x="-0.2816" y="1" relative="1" as="geometry">
            <mxPoint x="-6" y="-14" as="offset" />
          </mxGeometry>
        </mxCell>
        <mxCell id="rycE0rhOUFEmShjch33u-16" style="edgeStyle=orthogonalEdgeStyle;rounded=0;orthogonalLoop=1;jettySize=auto;html=1;exitX=0;exitY=1;exitDx=0;exitDy=0;fontFamily=Comic Sans MS;entryX=0.591;entryY=1.05;entryDx=0;entryDy=0;entryPerimeter=0;strokeWidth=3;" parent="1" source="rycE0rhOUFEmShjch33u-1" target="rycE0rhOUFEmShjch33u-2" edge="1">
          <mxGeometry relative="1" as="geometry">
            <mxPoint x="60" y="610" as="targetPoint" />
            <Array as="points">
              <mxPoint x="320" y="791" />
              <mxPoint x="-229" y="791" />
            </Array>
          </mxGeometry>
        </mxCell>
        <mxCell id="rycE0rhOUFEmShjch33u-30" value="&lt;b style=&quot;color: rgb(25 , 25 , 25)&quot;&gt;&lt;font style=&quot;font-size: 40px&quot;&gt;Result&lt;/font&gt;&lt;/b&gt;" style="edgeLabel;html=1;align=center;verticalAlign=middle;resizable=0;points=[];fontFamily=Comic Sans MS;" parent="rycE0rhOUFEmShjch33u-16" vertex="1" connectable="0">
          <mxGeometry x="-0.3346" y="3" relative="1" as="geometry">
            <mxPoint as="offset" />
          </mxGeometry>
        </mxCell>
        <mxCell id="rycE0rhOUFEmShjch33u-1" value="&lt;span style=&quot;color: rgb(25 , 25 , 25)&quot;&gt;&lt;font face=&quot;Comic Sans MS&quot; size=&quot;1&quot;&gt;&lt;b style=&quot;font-size: 50px&quot;&gt;Ai-generated media detection system&lt;/b&gt;&lt;/font&gt;&lt;/span&gt;" style="rounded=0;whiteSpace=wrap;html=1;fillColor=#f8cecc;strokeColor=#b85450;" parent="1" vertex="1">
          <mxGeometry x="320" y="503" width="545" height="282" as="geometry" />
        </mxCell>
        <mxCell id="rycE0rhOUFEmShjch33u-23" style="edgeStyle=orthogonalEdgeStyle;rounded=0;orthogonalLoop=1;jettySize=auto;html=1;exitX=0.25;exitY=0;exitDx=0;exitDy=0;fontFamily=Comic Sans MS;entryX=0.5;entryY=0;entryDx=0;entryDy=0;strokeWidth=3;" parent="1" source="rycE0rhOUFEmShjch33u-2" target="rycE0rhOUFEmShjch33u-1" edge="1">
          <mxGeometry relative="1" as="geometry">
            <mxPoint x="536" y="477" as="targetPoint" />
            <Array as="points">
              <mxPoint x="-286" y="542" />
              <mxPoint x="-286" y="433" />
              <mxPoint x="593" y="433" />
            </Array>
          </mxGeometry>
        </mxCell>
        <mxCell id="rycE0rhOUFEmShjch33u-24" value="&lt;span style=&quot;font-weight: 600 ; color: rgb(25 , 25 , 25)&quot;&gt;&lt;font style=&quot;font-size: 40px&quot;&gt;Media&lt;/font&gt;&lt;/span&gt;" style="edgeLabel;html=1;align=center;verticalAlign=middle;resizable=0;points=[];fontFamily=Comic Sans MS;" parent="rycE0rhOUFEmShjch33u-23" vertex="1" connectable="0">
          <mxGeometry x="0.0261" y="2" relative="1" as="geometry">
            <mxPoint as="offset" />
          </mxGeometry>
        </mxCell>
        <mxCell id="rycE0rhOUFEmShjch33u-27" style="edgeStyle=orthogonalEdgeStyle;rounded=0;orthogonalLoop=1;jettySize=auto;html=1;exitX=0.25;exitY=0;exitDx=0;exitDy=0;fontFamily=Comic Sans MS;entryX=0.649;entryY=-0.018;entryDx=0;entryDy=0;entryPerimeter=0;strokeWidth=3;" parent="1" source="rycE0rhOUFEmShjch33u-2" target="rycE0rhOUFEmShjch33u-1" edge="1">
          <mxGeometry relative="1" as="geometry">
            <mxPoint x="610" y="270" as="targetPoint" />
            <Array as="points">
              <mxPoint x="-336" y="349" />
              <mxPoint x="674" y="349" />
            </Array>
          </mxGeometry>
        </mxCell>
        <mxCell id="rycE0rhOUFEmShjch33u-29" value="&lt;b style=&quot;color: rgb(25 , 25 , 25)&quot;&gt;&lt;font style=&quot;font-size: 35px&quot;&gt;&amp;nbsp;User information&lt;/font&gt;&lt;/b&gt;" style="edgeLabel;html=1;align=center;verticalAlign=middle;resizable=0;points=[];fontFamily=Comic Sans MS;" parent="rycE0rhOUFEmShjch33u-27" vertex="1" connectable="0">
          <mxGeometry x="0.1263" y="-2" relative="1" as="geometry">
            <mxPoint as="offset" />
          </mxGeometry>
        </mxCell>
        <mxCell id="rycE0rhOUFEmShjch33u-84" style="edgeStyle=orthogonalEdgeStyle;rounded=0;orthogonalLoop=1;jettySize=auto;html=1;exitX=1;exitY=0.25;exitDx=0;exitDy=0;fontFamily=Comic Sans MS;fontSize=50;strokeWidth=3;" parent="1" source="rycE0rhOUFEmShjch33u-2" edge="1">
          <mxGeometry relative="1" as="geometry">
            <mxPoint x="316.800048828125" y="578" as="targetPoint" />
            <Array as="points">
              <mxPoint x="-100" y="548" />
              <mxPoint x="94" y="548" />
              <mxPoint x="94" y="543" />
              <mxPoint x="293" y="543" />
              <mxPoint x="293" y="578" />
            </Array>
          </mxGeometry>
        </mxCell>
        <mxCell id="rycE0rhOUFEmShjch33u-86" value="&lt;b&gt;&lt;font style=&quot;font-size: 35px&quot;&gt;Feedback&lt;/font&gt;&lt;/b&gt;" style="edgeLabel;html=1;align=center;verticalAlign=middle;resizable=0;points=[];fontSize=50;fontFamily=Comic Sans MS;" parent="rycE0rhOUFEmShjch33u-84" vertex="1" connectable="0">
          <mxGeometry x="-0.2748" y="3" relative="1" as="geometry">
            <mxPoint x="1" as="offset" />
          </mxGeometry>
        </mxCell>
        <mxCell id="rycE0rhOUFEmShjch33u-2" value="&lt;font face=&quot;Comic Sans MS&quot; size=&quot;1&quot;&gt;&lt;b style=&quot;font-size: 55px&quot;&gt;User&lt;/b&gt;&lt;/font&gt;" style="rounded=0;whiteSpace=wrap;html=1;fillColor=#f8cecc;strokeColor=#b85450;" parent="1" vertex="1">
          <mxGeometry x="-415" y="542" width="315" height="142" as="geometry" />
        </mxCell>
        <mxCell id="rycE0rhOUFEmShjch33u-8" style="edgeStyle=orthogonalEdgeStyle;rounded=0;orthogonalLoop=1;jettySize=auto;html=1;exitX=0.5;exitY=1;exitDx=0;exitDy=0;entryX=1.004;entryY=0.576;entryDx=0;entryDy=0;entryPerimeter=0;fontFamily=Comic Sans MS;strokeWidth=3;" parent="1" source="rycE0rhOUFEmShjch33u-3" target="rycE0rhOUFEmShjch33u-1" edge="1">
          <mxGeometry relative="1" as="geometry" />
        </mxCell>
        <mxCell id="rycE0rhOUFEmShjch33u-26" value="&lt;b style=&quot;color: rgb(25 , 25 , 25)&quot;&gt;&lt;font style=&quot;font-size: 35px&quot;&gt;Admin information&lt;/font&gt;&lt;/b&gt;" style="edgeLabel;html=1;align=center;verticalAlign=middle;resizable=0;points=[];fontFamily=Comic Sans MS;" parent="rycE0rhOUFEmShjch33u-8" vertex="1" connectable="0">
          <mxGeometry x="-0.057" y="1" relative="1" as="geometry">
            <mxPoint as="offset" />
          </mxGeometry>
        </mxCell>
        <mxCell id="rycE0rhOUFEmShjch33u-3" value="&lt;font size=&quot;1&quot;&gt;&lt;b style=&quot;font-size: 50px&quot;&gt;Admin&lt;/b&gt;&lt;/font&gt;" style="rounded=0;whiteSpace=wrap;html=1;fontFamily=Comic Sans MS;fillColor=#f8cecc;strokeColor=#b85450;" parent="1" vertex="1">
          <mxGeometry x="1328" y="495" width="327" height="130" as="geometry" />
        </mxCell>
        <mxCell id="rycE0rhOUFEmShjch33u-33" value="&lt;b&gt;&lt;font style=&quot;font-size: 80px&quot;&gt;Context Diagram&amp;nbsp;&lt;/font&gt;&lt;/b&gt;" style="text;html=1;align=center;verticalAlign=middle;resizable=0;points=[];autosize=1;fontSize=25;fontFamily=Comic Sans MS;shadow=0;labelBorderColor=none;textDirection=ltr;" parent="1" vertex="1">
          <mxGeometry x="160" y="48" width="696" height="56" as="geometry" />
        </mxCell>
        <mxCell id="rycE0rhOUFEmShjch33u-34" style="edgeStyle=orthogonalEdgeStyle;rounded=0;orthogonalLoop=1;jettySize=auto;html=1;exitX=0.991;exitY=0.351;exitDx=0;exitDy=0;fontFamily=Comic Sans MS;exitPerimeter=0;" parent="1" source="rycE0rhOUFEmShjch33u-52" target="rycE0rhOUFEmShjch33u-49" edge="1">
          <mxGeometry relative="1" as="geometry">
            <mxPoint x="740" y="1546.5" as="sourcePoint" />
          </mxGeometry>
        </mxCell>
        <mxCell id="rycE0rhOUFEmShjch33u-35" value="&lt;span style=&quot;font-weight: 600 ; color: rgb(25 , 25 , 25)&quot;&gt;&lt;font style=&quot;font-size: 40px&quot;&gt;Analtics Report&lt;/font&gt;&lt;/span&gt;" style="edgeLabel;html=1;align=center;verticalAlign=middle;resizable=0;points=[];fontFamily=Comic Sans MS;" parent="rycE0rhOUFEmShjch33u-34" vertex="1" connectable="0">
          <mxGeometry x="-0.1099" relative="1" as="geometry">
            <mxPoint as="offset" />
          </mxGeometry>
        </mxCell>
        <mxCell id="rycE0rhOUFEmShjch33u-74" style="edgeStyle=orthogonalEdgeStyle;rounded=0;orthogonalLoop=1;jettySize=auto;html=1;exitX=1;exitY=0.5;exitDx=0;exitDy=0;entryX=0.015;entryY=0.661;entryDx=0;entryDy=0;entryPerimeter=0;fontFamily=Comic Sans MS;fontSize=50;" parent="1" source="rycE0rhOUFEmShjch33u-46" target="rycE0rhOUFEmShjch33u-52" edge="1">
          <mxGeometry relative="1" as="geometry">
            <Array as="points">
              <mxPoint x="-610" y="2229" />
              <mxPoint x="-308" y="2229" />
              <mxPoint x="-308" y="2242" />
              <mxPoint x="5" y="2242" />
            </Array>
          </mxGeometry>
        </mxCell>
        <mxCell id="rycE0rhOUFEmShjch33u-75" value="&lt;b&gt;Media&lt;/b&gt;" style="edgeLabel;html=1;align=center;verticalAlign=middle;resizable=0;points=[];fontSize=50;fontFamily=Comic Sans MS;" parent="rycE0rhOUFEmShjch33u-74" vertex="1" connectable="0">
          <mxGeometry x="-0.1624" y="3" relative="1" as="geometry">
            <mxPoint x="-1" as="offset" />
          </mxGeometry>
        </mxCell>
        <mxCell id="rycE0rhOUFEmShjch33u-77" style="edgeStyle=orthogonalEdgeStyle;rounded=0;orthogonalLoop=1;jettySize=auto;html=1;exitX=0.75;exitY=0;exitDx=0;exitDy=0;fontFamily=Comic Sans MS;fontSize=50;" parent="1" source="rycE0rhOUFEmShjch33u-46" target="rycE0rhOUFEmShjch33u-52" edge="1">
          <mxGeometry relative="1" as="geometry" />
        </mxCell>
        <mxCell id="rycE0rhOUFEmShjch33u-79" value="&lt;b&gt;&lt;font style=&quot;font-size: 40px&quot;&gt;Feedback&lt;/font&gt;&lt;/b&gt;" style="edgeLabel;html=1;align=center;verticalAlign=middle;resizable=0;points=[];fontSize=50;fontFamily=Comic Sans MS;" parent="rycE0rhOUFEmShjch33u-77" vertex="1" connectable="0">
          <mxGeometry x="0.2135" y="-3" relative="1" as="geometry">
            <mxPoint x="1" y="-26.6" as="offset" />
          </mxGeometry>
        </mxCell>
        <mxCell id="rycE0rhOUFEmShjch33u-80" style="edgeStyle=orthogonalEdgeStyle;rounded=0;orthogonalLoop=1;jettySize=auto;html=1;exitX=0.25;exitY=0;exitDx=0;exitDy=0;entryX=0;entryY=0;entryDx=0;entryDy=0;fontFamily=Comic Sans MS;fontSize=50;" parent="1" source="rycE0rhOUFEmShjch33u-46" target="rycE0rhOUFEmShjch33u-52" edge="1">
          <mxGeometry relative="1" as="geometry" />
        </mxCell>
        <mxCell id="rycE0rhOUFEmShjch33u-82" value="User Information" style="edgeLabel;html=1;align=center;verticalAlign=middle;resizable=0;points=[];fontSize=50;fontFamily=Comic Sans MS;" parent="rycE0rhOUFEmShjch33u-80" vertex="1" connectable="0">
          <mxGeometry x="0.3564" relative="1" as="geometry">
            <mxPoint as="offset" />
          </mxGeometry>
        </mxCell>
        <mxCell id="rycE0rhOUFEmShjch33u-46" value="&lt;font face=&quot;Comic Sans MS&quot; size=&quot;1&quot;&gt;&lt;b style=&quot;font-size: 50px&quot;&gt;User&lt;/b&gt;&lt;/font&gt;" style="rounded=0;whiteSpace=wrap;html=1;fillColor=#e1d5e7;strokeColor=#9673a6;" parent="1" vertex="1">
          <mxGeometry x="-946" y="2107" width="336" height="160" as="geometry" />
        </mxCell>
        <mxCell id="rycE0rhOUFEmShjch33u-47" style="edgeStyle=orthogonalEdgeStyle;rounded=0;orthogonalLoop=1;jettySize=auto;html=1;exitX=0.5;exitY=1;exitDx=0;exitDy=0;entryX=1.001;entryY=0.543;entryDx=0;entryDy=0;entryPerimeter=0;fontFamily=Comic Sans MS;" parent="1" source="rycE0rhOUFEmShjch33u-49" target="rycE0rhOUFEmShjch33u-52" edge="1">
          <mxGeometry relative="1" as="geometry">
            <mxPoint x="741.6799999999998" y="1614.96" as="targetPoint" />
          </mxGeometry>
        </mxCell>
        <mxCell id="rycE0rhOUFEmShjch33u-48" value="&lt;b style=&quot;color: rgb(25 , 25 , 25)&quot;&gt;&lt;font style=&quot;font-size: 40px&quot;&gt;Admin information&lt;/font&gt;&lt;/b&gt;" style="edgeLabel;html=1;align=center;verticalAlign=middle;resizable=0;points=[];fontFamily=Comic Sans MS;" parent="rycE0rhOUFEmShjch33u-47" vertex="1" connectable="0">
          <mxGeometry x="-0.057" y="1" relative="1" as="geometry">
            <mxPoint as="offset" />
          </mxGeometry>
        </mxCell>
        <mxCell id="rycE0rhOUFEmShjch33u-49" value="&lt;font size=&quot;1&quot;&gt;&lt;b style=&quot;font-size: 51px&quot;&gt;Admin&lt;/b&gt;&lt;/font&gt;" style="rounded=0;whiteSpace=wrap;html=1;fontFamily=Comic Sans MS;fillColor=#e1d5e7;strokeColor=#9673a6;" parent="1" vertex="1">
          <mxGeometry x="1225" y="1992" width="399" height="193" as="geometry" />
        </mxCell>
        <mxCell id="rycE0rhOUFEmShjch33u-51" value="&lt;b&gt;&lt;font style=&quot;font-size: 80px&quot;&gt;Context Diagram&amp;nbsp;&lt;/font&gt;&lt;/b&gt;" style="text;html=1;align=center;verticalAlign=middle;resizable=0;points=[];autosize=1;fontSize=25;fontFamily=Comic Sans MS;shadow=0;labelBorderColor=none;textDirection=ltr;" parent="1" vertex="1">
          <mxGeometry x="160" y="1082" width="696" height="56" as="geometry" />
        </mxCell>
        <mxCell id="rycE0rhOUFEmShjch33u-57" style="edgeStyle=orthogonalEdgeStyle;rounded=0;orthogonalLoop=1;jettySize=auto;html=1;exitX=0;exitY=1;exitDx=0;exitDy=0;entryX=0.5;entryY=1;entryDx=0;entryDy=0;" parent="1" source="rycE0rhOUFEmShjch33u-52" target="rycE0rhOUFEmShjch33u-46" edge="1">
          <mxGeometry relative="1" as="geometry">
            <Array as="points">
              <mxPoint x="105" y="2375" />
              <mxPoint x="-308" y="2375" />
              <mxPoint x="-308" y="2369" />
              <mxPoint x="-778" y="2369" />
            </Array>
          </mxGeometry>
        </mxCell>
        <mxCell id="rycE0rhOUFEmShjch33u-59" value="User History" style="edgeLabel;html=1;align=center;verticalAlign=middle;resizable=0;points=[];fontSize=50;fontStyle=1;fontFamily=Comic Sans MS;" parent="rycE0rhOUFEmShjch33u-57" vertex="1" connectable="0">
          <mxGeometry x="-0.2222" y="-4" relative="1" as="geometry">
            <mxPoint as="offset" />
          </mxGeometry>
        </mxCell>
        <mxCell id="rycE0rhOUFEmShjch33u-71" style="edgeStyle=orthogonalEdgeStyle;rounded=0;orthogonalLoop=1;jettySize=auto;html=1;exitX=0.5;exitY=1;exitDx=0;exitDy=0;fontFamily=Comic Sans MS;fontSize=50;" parent="1" source="rycE0rhOUFEmShjch33u-52" edge="1">
          <mxGeometry relative="1" as="geometry">
            <mxPoint x="-918" y="2277" as="targetPoint" />
            <Array as="points">
              <mxPoint x="376" y="2482" />
              <mxPoint x="-918" y="2482" />
            </Array>
          </mxGeometry>
        </mxCell>
        <mxCell id="rycE0rhOUFEmShjch33u-72" value="&lt;b&gt;Result&lt;/b&gt;" style="edgeLabel;html=1;align=center;verticalAlign=middle;resizable=0;points=[];fontSize=50;fontFamily=Comic Sans MS;" parent="rycE0rhOUFEmShjch33u-71" vertex="1" connectable="0">
          <mxGeometry x="0.1297" y="-1" relative="1" as="geometry">
            <mxPoint as="offset" />
          </mxGeometry>
        </mxCell>
        <mxCell id="rycE0rhOUFEmShjch33u-52" value="&lt;b style=&quot;color: rgb(25 , 25 , 25) ; font-family: &amp;#34;comic sans ms&amp;#34;&quot;&gt;&lt;font style=&quot;font-size: 52px&quot;&gt;Ai-generated media detection system&lt;/font&gt;&lt;/b&gt;" style="ellipse;whiteSpace=wrap;html=1;fillColor=#e1d5e7;strokeColor=#9673a6;" parent="1" vertex="1">
          <mxGeometry x="-7" y="1844" width="766" height="505" as="geometry" />
        </mxCell>
      </root>
    </mxGraphModel>
  </diagram>
</mxfile>
